<svg width="714" height="690" viewBox="0 0 714 690" fill="none" xmlns="http://www.w3.org/2000/svg">
<g clip-path="url(#clip0_303_32)">
<path d="M377.383 336.751L356.951 335.19L415.491 0L437.471 1.93617L377.383 336.751Z" fill="url(#paint0_linear_303_32)"/>
<path d="M415.403 48.973L362.549 334.785L371.557 335.902L424.411 50.0897L415.403 48.973Z" fill="#263238"/>
<path d="M417.758 50.6617L425.408 6.23679" stroke="#263238" stroke-width="8" stroke-miterlimit="10"/>
<path d="M702.068 144.115C379.181 -81.3995 103.099 89.2334 103.099 89.2334L702.068 144.115Z" fill="url(#paint1_linear_303_32)"/>
<path d="M682.834 137.798C382.2 -72.031 124.97 86.9404 124.97 86.9404L682.834 137.798Z" fill="#FDEF42"/>
<path d="M20.7375 272.786L37.2142 313.919L54.4755 357.014L70.9522 398.147L88.2134 441.242L104.69 482.375L121.962 525.47L138.439 566.602L155.7 609.698L172.177 650.83L187.869 690.009L468.07 614.757L452.378 575.578L435.902 534.446L418.64 491.35L402.164 450.218L384.892 407.123L368.415 365.99L351.154 322.904L334.677 281.762L317.416 238.676L300.939 197.543L20.7375 272.786Z" fill="url(#paint2_linear_303_32)"/>
<path d="M298.471 204.732L30.1965 276.782L191.779 680.124L460.053 608.074L298.471 204.732Z" fill="#FDEF42"/>
<path opacity="0.5" d="M298.468 204.738L30.1938 276.788L46.1228 316.55L314.397 244.5L298.468 204.738Z" fill="white"/>
<path opacity="0.5" d="M331.086 286.161L62.812 358.211L78.741 397.973L347.015 325.923L331.086 286.161Z" fill="white"/>
<path opacity="0.5" d="M363.7 367.581L95.426 439.631L111.355 479.393L379.629 407.343L363.7 367.581Z" fill="white"/>
<path opacity="0.5" d="M396.318 449.004L128.044 521.054L143.973 560.816L412.247 488.766L396.318 449.004Z" fill="white"/>
<path opacity="0.5" d="M428.936 530.427L160.662 602.476L176.591 642.238L444.865 570.189L428.936 530.427Z" fill="white"/>
<path d="M242.41 378.08C242.41 378.08 295.283 321.869 255.726 306.245C216.169 290.622 174.945 299.625 174.945 299.625L179.118 310.037C179.118 310.037 279.896 318.63 216.507 365.009L242.41 378.08Z" fill="#CB9E90"/>
<path d="M158.839 400.52C158.839 400.52 75.5617 380.891 96.1467 349.1C116.732 317.309 156.496 304.595 156.496 304.595L160.669 315.007C160.669 315.007 85.6853 370.799 170.313 377.464L158.839 400.52Z" fill="#CB9E90"/>
<path opacity="0.2" d="M99.6227 348.172C116.601 321.985 146.579 308.726 156.561 304.88L156.452 304.595C156.452 304.595 116.742 317.354 96.1574 349.1C75.5725 380.846 158.849 400.52 158.849 400.52L159.645 398.914C145.598 395.202 81.3044 376.492 99.6227 348.172Z" fill="black"/>
<path opacity="0.2" d="M252.261 307.182C219.634 294.316 185.886 298.171 175.065 299.91L174.956 299.625C174.956 299.625 216.191 290.649 255.737 306.245C295.283 321.842 242.421 378.08 242.421 378.08L240.612 377.188C249.264 367.311 287.546 321.092 252.261 307.182Z" fill="black"/>
<path d="M193.008 370.277C227.497 361.014 246.285 330.613 234.973 302.374C223.66 274.135 186.53 258.752 152.041 268.015C117.552 277.277 98.7643 307.678 110.077 335.917C121.39 364.156 158.519 379.539 193.008 370.277Z" fill="black"/>
<path d="M235.109 475.379C211.571 481.696 193.547 490.039 185.918 470.811L160.855 408.354C157.169 399.063 158.123 388.955 163.509 380.238C168.896 371.522 178.276 364.904 189.602 361.832V361.832C200.949 358.814 213.294 359.596 223.94 364.006C234.586 368.416 242.668 376.096 246.42 385.37L271.484 447.827C279.166 467.055 258.636 469.027 235.109 475.379Z" fill="#FF8976"/>
<g opacity="0.2">
<path opacity="0.2" d="M238.574 474.442L236.841 474.915C242.65 473.399 248.229 472.105 253.187 470.722C248.632 471.908 243.674 473.077 238.574 474.442Z" fill="black"/>
<path opacity="0.2" d="M189.34 469.838L164.276 407.381C160.682 398.326 161.493 388.485 166.539 379.907C171.585 371.329 180.479 364.676 191.367 361.333C190.779 361.466 190.201 361.609 189.613 361.761C178.285 364.831 168.902 371.448 163.513 380.165C158.125 388.882 157.169 398.99 160.855 408.282L185.918 470.74C191.966 485.828 204.302 483.981 220.681 479.439C205.991 483.302 194.952 483.847 189.34 469.838Z" fill="black"/>
</g>
<path d="M273.532 452.966C273.532 452.966 327.714 491.261 328.019 524.435C328.007 529.862 328.433 535.284 329.294 540.665L335.233 587.954L310.572 593.53L300.994 534.268C300.455 530.95 298.908 527.796 296.493 525.095L275.494 501.54C273.236 499.008 270.056 497.126 266.411 496.164C262.766 495.202 258.842 495.21 255.203 496.186V496.186C252.735 496.85 250.47 497.939 248.561 499.382C246.652 500.824 245.143 502.586 244.138 504.547C243.133 506.508 242.654 508.623 242.733 510.749C242.813 512.875 243.45 514.962 244.6 516.869L265.828 552.059L285.443 626.499L261.11 633.03C261.11 633.03 240.666 575.596 223.503 548.749C206.34 521.901 188.534 475.817 188.534 475.817L273.532 452.966Z" fill="black"/>
<path d="M184.877 347.289L182.941 347.809C178.366 349.038 175.873 353.07 177.374 356.816L183.318 371.653C184.818 375.399 189.744 377.439 194.318 376.21L196.255 375.69C200.83 374.462 203.322 370.429 201.821 366.683L195.878 351.847C194.377 348.101 189.452 346.06 184.877 347.289Z" fill="#CB9E90"/>
<path opacity="0.2" d="M176.972 355.845C176.972 355.845 186.55 358.754 195.235 350.991Z" fill="black"/>
<path d="M186.559 354.177C210.188 347.831 223.06 327.002 215.31 307.655C207.559 288.308 182.121 277.768 158.491 284.115C134.862 290.461 121.99 311.289 129.74 330.636C137.491 349.983 162.929 360.523 186.559 354.177Z" fill="#CB9E90"/>
<path d="M130.342 293.781C130.342 293.781 134.407 323.1 210.405 292.201L182.42 273.464L155.079 275.561L130.342 293.781Z" fill="black"/>
<path d="M192.075 332.781C192.914 334.869 188.272 339.026 181.254 340.927C174.237 342.827 167.48 341.703 166.641 339.606C165.802 337.51 171.196 335.234 178.225 333.361C185.254 331.487 191.236 330.729 192.075 332.781Z" fill="white"/>
<path opacity="0.1" d="M178.006 322.919L170.83 324.846C170.259 325 169.947 325.504 170.135 325.972L170.213 326.167C170.4 326.635 171.016 326.89 171.588 326.737L178.763 324.809C179.335 324.656 179.647 324.152 179.459 323.684L179.381 323.488C179.194 323.02 178.578 322.765 178.006 322.919Z" fill="black"/>
<path d="M149.828 316.844C151.103 316.501 151.798 315.377 151.38 314.333C150.962 313.289 149.589 312.72 148.313 313.063C147.038 313.405 146.343 314.529 146.762 315.573C147.18 316.618 148.553 317.186 149.828 316.844Z" fill="#383F4D"/>
<path d="M189.152 306.283C190.427 305.941 191.122 304.817 190.703 303.773C190.285 302.729 188.912 302.16 187.637 302.502C186.362 302.845 185.667 303.969 186.085 305.013C186.504 306.057 187.876 306.626 189.152 306.283Z" fill="#383F4D"/>
<path d="M134.701 314.195L138.047 322.556C138.406 323.446 139.179 324.185 140.199 324.612C141.219 325.04 142.403 325.122 143.495 324.84L160.648 320.236C161.735 319.941 162.638 319.308 163.16 318.474C163.682 317.639 163.782 316.669 163.437 315.774L160.092 307.414C159.732 306.524 158.959 305.785 157.94 305.357C156.92 304.93 155.736 304.848 154.643 305.13L137.491 309.734C136.403 310.028 135.501 310.661 134.979 311.496C134.457 312.331 134.357 313.301 134.701 314.195V314.195ZM157.847 319.477L145.315 322.841C144.223 323.123 143.038 323.041 142.019 322.614C140.999 322.186 140.226 321.448 139.867 320.557L137.622 314.945C137.277 314.05 137.377 313.081 137.899 312.246C138.421 311.411 139.324 310.778 140.411 310.483L152.943 307.12C154.036 306.838 155.22 306.92 156.24 307.347C157.259 307.774 158.032 308.513 158.392 309.404L160.637 315.016C160.98 315.913 160.877 316.885 160.351 317.72C159.824 318.555 158.917 319.187 157.825 319.477H157.847Z" fill="#E75F7E"/>
<path opacity="0.2" d="M153.114 306.524L139.715 310.123C137.668 310.673 136.553 312.477 137.224 314.153L140.101 321.334C140.773 323.011 142.977 323.924 145.024 323.374L158.423 319.775C160.47 319.226 161.585 317.421 160.914 315.745L158.037 308.564C157.365 306.888 155.161 305.974 153.114 306.524Z" fill="#E75F7E"/>
<path d="M161.16 312.116L160.07 311.599C160.135 311.518 167.448 303.087 177.059 307.066L176.514 307.958C167.938 304.389 161.389 311.813 161.16 312.116Z" fill="#E75F7E"/>
<path d="M216.049 314.597C218.058 314.454 219.356 311.226 218.948 307.387C218.54 303.548 216.581 300.552 214.573 300.695C212.564 300.838 211.267 304.066 211.674 307.905C212.082 311.744 214.041 314.74 216.049 314.597Z" fill="#CB9E90"/>
<path d="M134.169 336.594C135.891 335.735 135.302 332.371 132.853 329.08C130.405 325.789 127.024 323.818 125.302 324.676C123.58 325.535 124.169 328.899 126.618 332.19C129.066 335.481 132.447 337.453 134.169 336.594Z" fill="#CB9E90"/>
<path opacity="0.2" d="M132.195 292.416L130.342 293.781C130.342 293.781 134.407 323.1 210.405 292.201L207.604 290.328C147.898 313.713 134.908 298.402 132.195 292.416Z" fill="white"/>
<path d="M173.997 303.64L177.342 312C177.702 312.891 178.475 313.63 179.494 314.057C180.514 314.485 181.698 314.566 182.791 314.284L199.943 309.68C201.031 309.386 201.933 308.753 202.455 307.918C202.977 307.083 203.077 306.114 202.733 305.219L199.431 296.823C199.071 295.933 198.298 295.194 197.279 294.766C196.259 294.339 195.075 294.257 193.982 294.539L176.83 299.143C176.282 299.285 175.775 299.514 175.336 299.817C174.897 300.12 174.535 300.491 174.272 300.909C174.008 301.327 173.849 301.784 173.801 302.252C173.754 302.721 173.82 303.192 173.997 303.64V303.64ZM197.142 308.922L184.611 312.286C183.518 312.568 182.334 312.486 181.314 312.059C180.294 311.631 179.521 310.892 179.162 310.002L176.917 304.389C176.573 303.495 176.673 302.525 177.195 301.69C177.717 300.856 178.619 300.223 179.707 299.928L192.239 296.564C193.331 296.283 194.515 296.364 195.535 296.792C196.555 297.219 197.328 297.958 197.687 298.849L199.932 304.461C200.276 305.357 200.175 306.327 199.65 307.162C199.126 307.997 198.221 308.63 197.132 308.922H197.142Z" fill="#E75F7E"/>
<path opacity="0.2" d="M192.438 295.964L179.039 299.562C176.992 300.112 175.877 301.917 176.548 303.593L179.425 310.774C180.096 312.45 182.3 313.363 184.348 312.813L197.746 309.215C199.794 308.665 200.909 306.861 200.237 305.184L197.361 298.003C196.689 296.327 194.485 295.414 192.438 295.964Z" fill="#E75F7E"/>
<g opacity="0.2">
<path opacity="0.2" d="M228.145 547.544C210.982 520.696 193.176 474.612 193.176 474.612L188.555 475.852C188.555 475.852 206.362 521.928 223.525 548.784C240.688 575.641 261.109 633.03 261.109 633.03L265.73 631.79C265.73 631.79 245.297 574.356 228.145 547.544Z" fill="black"/>
</g>
<path d="M261.109 633.03L268.737 651.937L304.927 649.554C304.927 649.554 309.973 642.961 301.135 640.088C292.297 637.215 285.432 626.472 285.432 626.472L261.109 633.03Z" fill="#FFFAFA"/>
<path d="M309.875 588.48L307.554 605.959L341.847 615.721C341.847 615.721 349.704 611.349 343.035 605.808C336.366 600.267 335.407 588.168 335.407 588.168L309.875 588.48Z" fill="#FFFAFA"/>
<path opacity="0.2" d="M263.431 632.414L261.12 633.039L268.738 651.937L304.927 649.554C304.927 649.554 305.069 649.376 305.254 649.064L271.048 651.312L263.431 632.414Z" fill="black"/>
<path opacity="0.1" d="M713.969 378.838C716.921 333.03 559.499 288.991 362.358 280.475C165.216 271.959 3.00902 302.191 0.0573513 347.999C-2.89431 393.808 154.527 437.847 351.669 446.363C548.81 454.878 711.017 424.647 713.969 378.838Z" fill="black"/>
</g>
<defs>
<linearGradient id="paint0_linear_303_32" x1="476.282" y1="294.784" x2="359.387" y2="27.4748" gradientUnits="userSpaceOnUse">
<stop stop-color="#808080" stop-opacity="0.25"/>
<stop offset="0.54" stop-color="#808080" stop-opacity="0.12"/>
<stop offset="1" stop-color="#808080" stop-opacity="0.1"/>
</linearGradient>
<linearGradient id="paint1_linear_303_32" x1="482.096" y1="243.301" x2="364.568" y2="-25.4564" gradientUnits="userSpaceOnUse">
<stop stop-color="#808080" stop-opacity="0.25"/>
<stop offset="0.54" stop-color="#808080" stop-opacity="0.12"/>
<stop offset="1" stop-color="#808080" stop-opacity="0.1"/>
</linearGradient>
<linearGradient id="paint2_linear_303_32" x1="327.979" y1="652.37" x2="212.223" y2="221.359" gradientUnits="userSpaceOnUse">
<stop stop-color="#808080" stop-opacity="0.25"/>
<stop offset="0.54" stop-color="#808080" stop-opacity="0.12"/>
<stop offset="1" stop-color="#808080" stop-opacity="0.1"/>
</linearGradient>
<clipPath id="clip0_303_32">
<rect width="714" height="690" fill="white"/>
</clipPath>
</defs>
</svg>
