<svg width="991" height="673" viewBox="0 0 991 673" fill="none" xmlns="http://www.w3.org/2000/svg">
<path d="M574.42 464.019C571.424 464.02 568.52 465.134 566.192 467.175C563.864 469.216 562.253 472.06 561.628 475.232H579.87V524.805H561.628C562.302 528.227 564.121 531.259 566.736 533.315C569.351 535.371 572.577 536.306 575.791 535.94C579.005 535.573 581.98 533.931 584.142 531.33C586.304 528.729 587.5 525.353 587.5 521.854V478.183C587.5 476.323 587.162 474.481 586.504 472.763C585.847 471.044 584.883 469.483 583.669 468.168C582.454 466.852 581.012 465.809 579.425 465.097C577.838 464.386 576.138 464.019 574.42 464.019V464.019Z" fill="#3F3D56"/>
<path d="M427.352 377.267C421.117 377.275 415.139 379.961 410.731 384.734C406.322 389.508 403.842 395.981 403.835 402.733V598.484C403.842 605.236 406.322 611.708 410.731 616.482C415.139 621.256 421.117 623.942 427.352 623.949H541.638C547.873 623.942 553.85 621.256 558.259 616.482C562.668 611.708 565.148 605.236 565.155 598.484V402.733C565.148 395.981 562.668 389.508 558.259 384.734C553.85 379.961 547.873 377.275 541.638 377.267H427.352Z" fill="#3F3D56"/>
<path d="M415.28 646.965C421.902 646.965 427.27 641.152 427.27 633.982C427.27 626.812 421.902 620.999 415.28 620.999C408.658 620.999 403.29 626.812 403.29 633.982C403.29 641.152 408.658 646.965 415.28 646.965Z" fill="#3F3D56"/>
<path d="M549.35 646.965C555.972 646.965 561.34 641.152 561.34 633.982C561.34 626.812 555.972 620.999 549.35 620.999C542.728 620.999 537.36 626.812 537.36 633.982C537.36 641.152 542.728 646.965 549.35 646.965Z" fill="#3F3D56"/>
<path d="M430.54 375.497H424V624.54H430.54V375.497Z" fill="#B2B2B2" fill-opacity="0.6"/>
<path d="M449.07 375.497H442.53V624.54H449.07V375.497Z" fill="#B2B2B2" fill-opacity="0.6"/>
<path d="M467.6 375.497H461.06V624.54H467.6V375.497Z" fill="#B2B2B2" fill-opacity="0.6"/>
<path d="M486.13 375.497H479.59V624.54H486.13V375.497Z" fill="#B2B2B2" fill-opacity="0.6"/>
<path d="M504.66 375.497H498.12V624.54H504.66V375.497Z" fill="#B2B2B2" fill-opacity="0.6"/>
<path d="M523.19 375.497H516.65V624.54H523.19V375.497Z" fill="#B2B2B2" fill-opacity="0.6"/>
<path d="M541.72 375.497H535.18V624.54H541.72V375.497Z" fill="#B2B2B2" fill-opacity="0.6"/>
<path d="M539.963 356.612C544.236 348.741 546.489 339.776 546.489 330.646H430.676C430.675 339.776 432.928 348.741 437.202 356.612H413.645C413.645 370.301 424.32 381.398 437.488 381.398H466.668C471.571 382.969 476.657 383.764 481.77 383.759H495.395C500.507 383.764 505.594 382.969 510.496 381.398H539.676C552.845 381.398 563.52 370.301 563.52 356.612H539.963Z" fill="black"/>
<path d="M454.415 535.427C454.63 537.944 454.136 540.472 452.998 542.678C451.859 544.884 450.13 546.665 448.038 547.785L447.98 547.82C437.079 554.553 428.158 559.839 417.572 558.865C416.505 558.763 415.474 558.395 414.56 557.791C413.646 557.187 412.873 556.362 412.302 555.381C411.73 554.401 411.376 553.29 411.265 552.137C411.155 550.983 411.292 549.818 411.666 548.731L426.725 517.723C435.472 506.688 441.636 506.677 452.34 515.952L454.415 535.427Z" fill="#00853F"/>
<path d="M516.755 535.427C516.539 537.944 517.034 540.472 518.172 542.678C519.31 544.884 521.039 546.665 523.131 547.785L523.19 547.82C534.091 554.553 543.011 559.839 553.598 558.865C554.665 558.763 555.695 558.395 556.609 557.791C557.523 557.187 558.296 556.362 558.868 555.381C559.439 554.401 559.794 553.29 559.904 552.137C560.014 550.983 559.877 549.818 559.503 548.731L544.445 517.723C535.698 506.688 529.533 506.677 518.83 515.952L516.755 535.427Z" fill="#00853F"/>
<path d="M472.991 170.125H431.09C429.192 170.129 427.343 169.47 425.818 168.246C424.292 167.022 423.172 165.299 422.622 163.332C421.332 158.676 419.666 154.158 419.64 150.06C419.537 134.157 420.267 124.035 426.725 117.602C448.242 99.9348 463.833 103.185 478.5 121.733C483.648 132.096 482.327 147.561 479.542 164.181C479.266 165.846 478.459 167.353 477.262 168.44C476.065 169.526 474.553 170.123 472.991 170.125Z" fill="#2F2E41"/>
<path d="M451.25 190.19C466.902 190.19 479.59 176.451 479.59 159.503C479.59 142.554 466.902 128.815 451.25 128.815C435.598 128.815 422.91 142.554 422.91 159.503C422.91 176.451 435.598 190.19 451.25 190.19Z" fill="#644A4D"/>
<path d="M473.05 220.879L433.809 222.059L430.539 176.027L468.69 174.847L473.05 220.879Z" fill="#614D50"/>
<path d="M539.54 330.646L512.463 344.217C507.926 355.871 501.672 355.536 493.76 343.629C486.208 357.95 469.943 349.368 461.996 343.113C456.874 340.286 451.208 338.806 445.459 338.793C439.709 338.78 434.038 340.235 428.905 343.039L400.02 204.354C408.923 196.065 420.787 190.859 432.175 187.24L454.52 217.337L469.78 187.83C480.386 178.596 495.284 178.579 511.2 180.748L520.493 234.546C514.364 276.983 523.58 298.268 539.54 330.646Z" fill="#00853F"/>
<path d="M450.16 513.592L427.27 515.952L393.36 353.669C392.589 349.911 392.607 346.013 393.413 342.264C394.219 338.514 395.792 335.008 398.017 332.006C400.242 329.003 403.061 326.579 406.266 324.914C409.471 323.248 412.981 322.384 416.536 322.384V322.384C419.917 322.384 423.258 323.165 426.337 324.676C429.416 326.187 432.161 328.393 434.389 331.145C436.618 333.898 438.277 337.134 439.258 340.637C440.238 344.14 440.516 347.829 440.073 351.458L435.99 384.939L450.16 513.592Z" fill="black"/>
<path d="M518.83 515.952L541.72 514.772L575.629 353.669C576.401 349.911 576.383 346.013 575.577 342.264C574.771 338.514 573.197 335.008 570.973 332.005C568.748 329.003 565.929 326.579 562.724 324.914C559.518 323.248 556.009 322.384 552.453 322.384V322.384C549.073 322.384 545.732 323.165 542.653 324.676C539.574 326.187 536.828 328.393 534.6 331.145C532.372 333.898 530.712 337.134 529.732 340.637C528.752 344.14 528.474 347.829 528.916 351.458L533 384.939L518.83 515.952Z" fill="black"/>
<path d="M593.23 283.056L573.875 337.137C563.292 328.376 554.76 327.18 543.022 331.826C539.776 331.338 537.36 323.612 537.36 320.064C537.36 318.234 538.011 316.475 539.179 315.152C540.346 313.83 541.939 313.045 543.627 312.962L561.34 312.09C564.581 302.902 566.55 293.246 567.185 283.434C575.684 280.823 584.67 280.692 593.23 283.056V283.056Z" fill="#644A4D"/>
<path d="M595.13 284.614L599.848 265.548C601.909 258.575 601.707 251.049 599.275 244.218C596.843 237.386 592.328 231.66 586.478 227.989L511.2 180.748L510.11 232.681L565.7 258.648C567.235 267.483 567.734 276.494 567.185 285.465C575.856 282.675 586.437 282.082 595.13 284.614Z" fill="#00853F"/>
<path d="M479.045 142.388L449.615 148.29C446.895 148.29 444.202 147.71 441.689 146.583C439.177 145.456 436.894 143.804 434.97 141.721C433.047 139.639 431.522 137.167 430.481 134.446C429.44 131.725 428.905 128.809 428.905 125.864H480.135L479.045 142.388Z" fill="#2F2E41"/>
<path d="M425.09 154.191C426.595 154.191 427.815 151.549 427.815 148.29C427.815 145.03 426.595 142.388 425.09 142.388C423.585 142.388 422.365 145.03 422.365 148.29C422.365 151.549 423.585 154.191 425.09 154.191Z" fill="#614D50"/>
<path d="M515.015 242.22H514.698V232.83C514.698 232.117 514.568 231.41 514.316 230.751C514.064 230.091 513.694 229.492 513.228 228.987C512.762 228.483 512.209 228.083 511.6 227.809C510.991 227.536 510.338 227.396 509.679 227.396H491.308C490.649 227.396 489.996 227.536 489.387 227.809C488.778 228.083 488.225 228.483 487.759 228.987C487.293 229.492 486.923 230.091 486.671 230.751C486.419 231.41 486.289 232.117 486.289 232.83V284.343C486.289 285.057 486.419 285.764 486.671 286.423C486.923 287.082 487.293 287.682 487.759 288.186C488.225 288.691 488.778 289.091 489.387 289.364C489.996 289.637 490.649 289.778 491.308 289.778H509.679C510.338 289.778 510.991 289.637 511.6 289.364C512.209 289.091 512.762 288.691 513.228 288.186C513.694 287.682 514.064 287.082 514.316 286.423C514.568 285.764 514.698 285.057 514.698 284.343V248.904H515.015V242.22Z" fill="#E31B23"/>
<path d="M499.755 247.435C502.163 247.435 504.115 245.321 504.115 242.714C504.115 240.106 502.163 237.992 499.755 237.992C497.347 237.992 495.395 240.106 495.395 242.714C495.395 245.321 497.347 247.435 499.755 247.435Z" fill="#00853F"/>
<path d="M495.94 285.794C473.518 304.853 451.039 320.717 434.355 322.974L431.63 290.516C447.653 288.014 469.077 276.583 491.58 263.369L502.585 257.172C504.36 256.172 506.336 255.665 508.336 255.695C510.336 255.725 512.298 256.292 514.047 257.344C515.795 258.396 517.276 259.901 518.355 261.725C519.435 263.548 520.081 265.633 520.234 267.793V267.793C520.452 270.856 519.668 273.904 518.021 276.405C516.374 278.907 513.968 280.702 511.223 281.477L495.94 285.794Z" fill="#644A4D"/>
<path d="M453.43 323.564L408.74 324.744C393.702 292.8 388.245 258.713 391.3 222.721C391.3 218.875 392.161 215.086 393.809 211.679C395.458 208.272 397.844 205.349 400.765 203.16L405.47 199.633C425.587 231.971 438.065 262 433.81 286.975L446.89 285.794C438.419 298.174 442.341 310.798 453.43 323.564Z" fill="#00853F"/>
</svg>
