<svg width="1003" height="912" viewBox="0 0 1003 912" fill="none" xmlns="http://www.w3.org/2000/svg">
<path d="M509.28 343.476C507.69 339.88 499.286 317.537 499.286 317.537L485.204 274.905C485.204 274.905 475.209 256.928 475.209 253.589C475.209 250.25 457.038 236.896 457.038 236.896C457.038 236.896 442.274 231.76 441.138 231.246C440.003 230.732 422.513 223.973 422.513 223.973C422.513 223.973 415.626 213.392 414.645 216.155L414.644 216.162C414.608 216.092 414.572 216.032 414.536 215.96C413.129 212.888 412.238 209.53 411.91 206.067C411.873 205.76 411.841 205.435 411.808 205.114C416.344 201.522 420.062 196.692 422.64 191.042C425.218 185.392 426.577 179.093 426.602 172.691C426.598 171.006 426.501 169.322 426.311 167.651C426.436 167.56 426.566 167.48 426.702 167.411C426.984 167.267 426.913 167.151 426.705 167.029C426.776 166.986 426.847 166.939 426.919 166.904C427.295 166.713 427.044 166.568 426.68 166.397L426.701 166.384C427.214 166.124 426.566 165.951 426.045 165.676C426.017 165.498 425.991 165.32 425.961 165.143C426.076 164.805 426.147 164.448 426.17 164.085C426.216 164.112 426.258 164.141 426.307 164.166C426.434 163.504 426.43 162.817 426.298 162.157C426.265 162.291 426.226 162.423 426.179 162.551C426.212 161.953 426.106 161.355 425.874 160.82C425.641 160.286 425.29 159.833 424.857 159.511C424.831 159.485 424.802 159.456 424.776 159.429L425.739 147.908C439.943 147.123 442.435 118.891 439.196 117.323C435.956 115.754 439.196 112.356 439.196 105.559C439.196 98.7625 428.48 91.1816 428.48 91.1816C428.48 91.1816 423.995 93.7958 417.018 80.7253C410.04 67.6547 384.374 65.5635 382.629 68.9618C380.885 72.3601 369.422 76.8041 354.471 81.7709C339.519 86.7377 342.26 107.389 344.752 111.833C346.805 115.507 348.007 119.74 348.241 124.119C348.241 126.733 352.976 137.713 352.976 137.713C351.482 141.517 355.283 162.359 356.408 168.282C356.39 168.464 356.372 168.646 356.356 168.829C356.347 168.847 356.334 168.862 356.325 168.88C356.271 168.976 356.222 169.075 356.179 169.178C355.938 169.792 355.858 170.476 355.95 171.143C355.868 171.872 355.955 172.613 356.202 173.29C356.287 178.87 357.392 184.365 359.443 189.406C361.494 194.447 364.443 198.918 368.093 202.52C368.111 202.876 368.128 203.235 368.145 203.602C368.354 208.44 368.472 214.162 368.254 219.638C368.243 219.918 368.225 220.192 368.212 220.471C367.388 220.666 366.614 221.084 365.954 221.692C365.294 222.301 364.765 223.082 364.411 223.973C363.003 227.137 354.826 232.016 354.826 232.016C354.826 232.016 340.516 232.787 339.153 235.869C337.79 238.951 317.12 249.223 317.12 249.223C317.12 249.223 306.218 256.671 307.808 265.146C308.638 269.574 306.306 276.454 303.89 282.017C298.835 279.778 293.572 278.245 288.21 277.449L299.789 290.392C299.547 290.834 299.404 291.085 299.404 291.085L292.817 318.307C292.817 318.307 290.545 327.81 288.274 330.121C286.002 332.432 290.318 353.492 290.318 353.492C290.318 353.492 287.819 368.387 285.775 372.239C283.731 376.092 288.955 385.594 288.955 385.594L299.404 413.33L327.115 421.549C327.115 421.549 328.961 422.005 331.945 422.752C331.851 423.414 331.755 424.075 331.657 424.733C330.322 433.568 328.568 441.693 326.433 443.892C321.209 449.285 321.436 473.426 321.436 473.426L321.663 507.583C321.663 507.583 323.48 549.701 322.572 551.242C321.998 552.215 323.149 553.801 326.186 555.226C326.099 555.86 326.014 556.503 325.933 557.159C325.079 564.145 324.698 572.116 326.66 575.64C327.512 577.545 327.979 579.654 328.023 581.803C328.023 585.142 332.339 592.076 332.339 592.076C332.339 592.076 328.932 620.583 334.61 630.342C340.289 640.101 345.059 657.822 342.333 661.931C342.333 661.931 337.563 674.001 339.834 679.395C342.106 684.788 339.834 687.87 336.882 689.154C333.929 690.438 334.183 700.967 334.183 700.967L339.607 751.047C339.607 751.047 342.56 761.32 340.062 764.915C337.563 768.511 337.563 786.488 341.424 792.652C345.286 798.815 335.973 810.115 335.973 810.115C335.973 810.115 330.295 819.618 339.38 822.699C339.38 822.699 341.197 823.213 337.79 827.322C334.383 831.431 333.702 836.568 335.973 838.365C336.444 838.695 336.937 838.981 337.446 839.22C337.362 839.829 337.271 840.46 337.163 841.129C336.291 846.491 334.646 853.476 331.657 856.856C325.864 863.791 320.865 871.574 316.784 880.011C313.668 886.914 312.305 893.376 315.758 896.406C323.935 903.597 334.383 905.909 340.516 903.084C346.648 900.259 355.28 891.527 355.28 891.527L357.324 881.511C357.324 881.511 355.961 875.347 362.775 873.036C369.589 870.724 375.95 862.506 375.95 862.506V849.193C377.599 848.092 379.192 846.877 380.719 845.556C380.719 845.556 383.899 832.459 380.719 828.093C377.539 823.727 376.404 822.186 380.492 819.361C384.581 816.536 385.135 810.372 382.137 804.979C379.129 799.586 374.36 791.625 378.448 780.324C382.536 769.024 384.036 734.354 384.036 734.354C384.036 734.354 382.128 710.727 384.036 705.333C385.944 699.94 381.855 689.154 381.855 689.154C381.855 689.154 383.218 675.799 385.716 669.636C388.215 663.472 390.259 630.856 390.259 630.856C390.259 630.856 394.802 616.988 394.802 607.999C394.802 599.01 387.761 577.438 398.209 571.788C398.209 571.788 402.752 576.41 400.935 594.901C400.935 594.901 406.159 616.474 406.159 623.151C406.159 629.829 410.02 653.97 410.02 653.97C410.02 653.97 410.475 661.674 412.065 664.499C413.655 667.324 412.065 675.029 412.065 675.029C412.065 675.029 417.97 681.449 416.38 685.558C414.79 689.668 416.653 698.934 416.653 698.934L415.245 756.44C415.245 756.44 411.156 781.095 420.696 795.991C420.696 795.991 417.289 817.82 415.245 819.361C413.2 820.902 422.74 834.256 422.74 834.256C422.74 834.256 420.096 842.908 425.466 843.332V857.627C427.33 861.476 429.888 864.805 432.961 867.386C437.959 871.495 435.914 885.62 435.914 885.62C435.914 885.62 442.274 903.597 459.082 899.745C475.891 895.893 478.162 894.095 477.254 887.675C476.927 885.333 476.2 881.152 475.155 876.406C473.347 868.157 470.576 858.202 467.26 853.292C462.035 845.557 457.72 829.377 457.72 829.377C457.72 829.377 455.675 823.984 457.72 822.186C459.764 820.388 458.855 817.05 458.855 817.05C458.855 817.05 460.845 810.372 459.055 806.263C457.265 802.154 462.49 793.679 462.49 793.679L460.9 754.129L462.49 696.602C462.49 696.602 455.448 687.099 458.401 681.449C461.354 675.799 454.994 667.838 454.994 667.838C454.994 667.838 454.313 667.581 456.13 661.161C457.217 657.377 457.055 653.255 455.675 649.604C455.675 649.604 451.814 633.681 458.628 621.611C458.628 621.611 461.581 605.688 462.49 597.47C463.116 591.758 467.041 570.422 469.377 557.94C469.509 557.235 469.635 556.559 469.756 555.914C473.12 556.129 475.664 556.379 475.664 556.379C475.664 556.379 470.439 514.004 475.664 505.272C480.888 496.54 471.575 429.767 471.575 429.767C471.575 429.767 469.349 418.097 467.977 406.191C467.899 405.513 467.828 404.835 467.755 404.157C471.972 403.763 476.206 403.653 480.434 403.828C491.336 404.599 502.012 399.719 502.239 394.84C502.466 389.96 508.372 370.699 509.28 366.333C510.189 361.967 510.87 347.071 509.28 343.476Z" fill="url(#paint0_linear_111_2)"/>
<path d="M376.744 838.908V862.688C376.744 862.688 370.616 870.871 364.05 873.172C357.484 875.473 358.798 881.61 358.798 881.61L356.828 891.582C356.828 891.582 348.511 900.276 342.602 903.089C336.692 905.902 326.625 903.6 318.745 896.441C315.419 893.423 316.732 886.99 319.735 880.117C323.647 871.747 328.463 863.999 334.066 857.063C336.946 853.698 338.531 846.743 339.371 841.404C339.993 837.405 340.194 834.306 340.194 834.306L376.744 838.908Z" fill="#0D0C0D"/>
<path opacity="0.1" d="M376.744 856.654V862.688C376.744 862.688 370.616 870.871 364.05 873.172C357.484 875.473 358.798 881.61 358.798 881.61L356.828 891.582C356.828 891.582 348.511 900.276 342.602 903.089C336.692 905.902 326.625 903.6 318.745 896.441C315.419 893.423 316.732 886.99 319.735 880.117C319.595 887.338 321.424 895.449 330.345 895.162C339.973 894.805 349.252 890.863 356.828 883.911C356.828 883.911 356.609 867.035 366.677 863.2C370.356 861.781 373.773 859.559 376.744 856.654V856.654Z" fill="black"/>
<path d="M456.849 899.765C440.653 903.6 434.524 885.701 434.524 885.701C434.524 885.701 436.494 871.638 431.679 867.547C428.702 864.952 426.238 861.638 424.457 857.83V834.306L444.154 817.941L454.817 828.967L455.535 829.703C455.535 829.703 459.694 845.812 464.728 853.514C467.923 858.403 470.593 868.314 472.335 876.527C473.342 881.252 474.043 885.415 474.358 887.747C475.233 894.139 473.045 895.929 456.849 899.765Z" fill="#0D0C0D"/>
<path opacity="0.1" d="M456.849 899.765C440.653 903.6 434.524 885.701 434.524 885.701C434.524 885.701 436.494 871.638 431.679 867.547C428.702 864.952 426.238 861.638 424.457 857.83V848.717C427.582 852.573 433.474 860.039 434.743 863.2C436.494 867.547 436.713 883.4 444.811 886.213C452.909 889.025 468.667 891.582 469.98 884.423C470.526 881.702 471.316 879.055 472.335 876.527C473.342 881.252 474.043 885.415 474.358 887.747C475.233 894.139 473.045 895.929 456.849 899.765Z" fill="black"/>
<path opacity="0.1" d="M340.194 834.306L376.744 838.908V851.479C372.621 854.332 366.712 857.36 363.394 854.25C358.491 849.668 343.915 843.848 339.371 841.404C339.993 837.405 340.194 834.306 340.194 834.306Z" fill="black"/>
<path opacity="0.1" d="M455.535 831.749C450.502 829.703 441.528 838.653 429.709 844.278C428.067 845.182 426.273 845.65 424.457 845.649V834.306L444.155 817.941L454.817 828.967C454.982 829.918 455.222 830.85 455.535 831.749Z" fill="black"/>
<path d="M468.448 550.224C468.448 550.224 467.757 553.988 466.768 559.45C464.518 571.877 460.736 593.12 460.132 598.807C459.256 606.989 456.411 622.843 456.411 622.843C449.845 634.861 453.566 650.714 453.566 650.714C454.896 654.362 455.052 658.449 454.003 662.22C452.252 668.613 452.909 668.869 452.909 668.869C452.909 668.869 459.037 676.795 456.192 682.421C453.347 688.046 460.132 697.507 460.132 697.507L458.599 754.783L460.132 794.161C460.132 794.161 455.098 802.599 456.822 806.69C458.547 810.782 456.63 817.43 456.63 817.43C456.63 817.43 457.505 820.754 455.535 822.544C453.566 824.334 455.535 829.703 455.535 829.703C450.501 827.658 441.528 836.607 429.709 842.233C417.891 847.858 421.83 834.562 421.83 834.562C421.83 834.562 412.638 821.265 414.608 819.731C416.578 818.197 419.86 796.462 419.86 796.462C410.668 781.632 414.608 757.085 414.608 757.085L415.965 699.829C415.965 699.829 414.17 690.603 415.702 686.512C417.234 682.421 411.544 676.028 411.544 676.028C411.544 676.028 413.076 668.357 411.544 665.544C410.012 662.732 409.574 655.061 409.574 655.061C409.574 655.061 405.853 631.025 405.853 624.377C405.853 617.729 400.819 596.25 400.819 596.25C402.57 577.84 398.193 573.237 398.193 573.237C388.125 578.862 394.91 600.341 394.91 609.291C394.91 618.24 390.533 632.048 390.533 632.048C390.533 632.048 388.563 664.522 386.155 670.659C383.748 676.795 382.435 690.092 382.435 690.092C382.435 690.092 386.374 700.831 384.536 706.201C382.697 711.57 384.536 735.095 384.536 735.095C384.536 735.095 383.091 769.614 379.152 780.865C375.212 792.116 379.808 800.042 382.706 805.412C385.595 810.782 385.061 816.918 381.122 819.731C377.182 822.544 378.276 824.078 381.34 828.425C384.405 832.772 381.34 845.812 381.34 845.812C381.34 845.812 368.865 857.319 363.394 852.205C357.922 847.091 340.413 840.443 338.224 838.653C336.036 836.863 336.692 831.749 339.975 827.658C343.258 823.567 341.507 823.055 341.507 823.055C332.753 819.987 338.224 810.526 338.224 810.526C338.224 810.526 347.198 799.275 343.477 793.138C339.756 787.002 339.756 769.103 342.164 765.523C344.571 761.943 341.726 751.715 341.726 751.715L336.5 701.854C336.5 701.854 336.254 691.37 339.1 690.092C341.945 688.813 344.134 685.745 341.945 680.375C339.756 675.005 344.352 662.987 344.352 662.987C346.979 658.896 342.383 641.253 336.911 631.536C331.439 621.82 334.722 593.437 334.722 593.437C334.722 593.437 330.564 586.533 330.564 583.209C330.523 581.075 330.074 578.978 329.251 577.073C327.36 573.564 327.727 565.627 328.55 558.672C329.347 551.942 330.564 546.133 330.564 546.133L468.448 550.224Z" fill="#CF082C"/>
<path d="M425.551 260.517L382.435 272.279C382.435 272.279 361.205 251.312 366.458 240.061C368.261 236.195 369.058 229.598 369.329 222.623C369.539 217.171 369.426 211.474 369.224 206.657C368.918 199.691 368.428 194.547 368.428 194.547C368.428 194.547 412.638 165.397 411.106 194.547C410.795 199.401 410.891 204.279 411.395 209.111C411.708 212.55 412.565 215.89 413.925 218.961C416.289 223.881 419.204 223.952 419.204 223.952L425.551 260.517Z" fill="#A96C76"/>
<path opacity="0.1" d="M411.395 209.111C405.164 214.333 397.602 216.934 389.943 216.488C382.284 216.042 374.98 212.576 369.224 206.657C368.918 199.691 368.428 194.547 368.428 194.547C368.428 194.547 412.638 165.397 411.106 194.547C410.795 199.401 410.891 204.279 411.395 209.111V209.111Z" fill="black"/>
<path d="M391.627 215.514C410.363 215.514 425.551 197.77 425.551 175.881C425.551 153.992 410.363 136.247 391.627 136.247C372.891 136.247 357.703 153.992 357.703 175.881C357.703 197.77 372.891 215.514 391.627 215.514Z" fill="#A96C76"/>
<path opacity="0.1" d="M425.551 260.517L382.435 272.279C382.435 272.279 361.205 251.312 366.458 240.061C368.261 236.195 369.058 229.598 369.329 222.623C370.281 228.688 373.068 234.152 377.182 238.016C387.031 245.687 385.499 255.147 385.499 255.147L403.227 254.38C402.133 245.942 408.699 241.34 410.887 240.317C413.076 239.294 411.981 234.692 411.981 234.692L413.925 218.961C416.289 223.881 419.204 223.952 419.204 223.952L425.551 260.517Z" fill="black"/>
<path opacity="0.1" d="M468.448 550.224C468.448 550.224 467.757 553.988 466.768 559.45C462.005 559.153 455.71 558.938 452.909 559.685C448.094 560.964 428.834 561.475 428.834 561.475L381.122 563.449V561.731C375.633 561.782 370.152 562.209 364.707 563.009C356.609 564.288 343.915 562.498 335.817 560.963C333.324 560.546 330.884 559.777 328.55 558.672C329.347 551.942 330.564 546.133 330.564 546.133L468.448 550.224Z" fill="black"/>
<path d="M464.728 387.855C464.036 392.632 464.544 400.548 465.419 408.362C466.741 420.217 468.886 431.836 468.886 431.836C468.886 431.836 477.86 498.317 472.826 507.011C467.792 515.705 472.826 557.895 472.826 557.895C472.826 557.895 457.724 556.361 452.909 557.639C448.094 558.918 428.834 559.429 428.834 559.429L381.122 561.403V559.685C375.633 559.737 370.152 560.164 364.707 560.964C356.609 562.242 343.915 560.452 335.817 558.918C327.719 557.384 324.436 554.315 325.311 552.781C326.187 551.247 324.436 509.312 324.436 509.312L324.217 475.304C324.217 475.304 323.998 451.269 329.032 445.899C331.089 443.71 332.779 435.62 334.066 426.824C335.913 414.09 336.911 399.873 336.911 399.873L303.644 295.804L302.987 293.758C302.987 293.758 312.617 276.37 311.085 267.932C309.553 259.494 320.059 252.079 320.059 252.079C320.059 252.079 339.975 241.851 341.288 238.783C342.602 235.714 356.39 234.947 356.39 234.947C356.39 234.947 364.269 230.089 365.626 226.939C365.956 226.059 366.461 225.283 367.099 224.677C367.737 224.07 368.49 223.65 369.294 223.451C370.222 229.591 373.024 235.13 377.182 239.038C387.031 246.709 385.499 256.17 385.499 256.17L403.227 255.403C402.133 246.965 408.699 242.363 410.887 241.34C413.076 240.317 411.981 235.714 411.981 235.714L414.03 219.155C414.975 216.404 421.611 226.939 421.611 226.939C421.611 226.939 438.464 233.669 439.558 234.18C440.653 234.692 454.879 239.806 454.879 239.806C454.879 239.806 472.388 253.102 472.388 256.426C472.388 259.75 482.018 277.649 482.018 277.649C482.018 277.649 481.904 278.365 481.694 279.674C479.47 293.768 466.33 376.86 464.728 387.855Z" fill="#F7F7F7"/>
<path d="M394.691 346.432C394.691 346.432 356.828 334.67 353.107 331.857C349.386 329.044 327.5 345.409 354.201 367.655C354.201 367.655 386.852 375.582 395.587 367.655C404.321 359.728 394.691 346.432 394.691 346.432Z" fill="#A96C76"/>
<path opacity="0.1" d="M476.546 276.37L481.143 276.626L494.712 319.072C494.712 319.072 502.81 341.318 504.342 344.898C505.874 348.478 505.218 363.308 504.342 367.655C503.467 372.002 497.776 391.179 497.557 396.038C497.339 400.896 487.052 405.754 476.546 404.987C466.041 404.22 441.528 408.055 441.528 408.055C441.528 408.055 415.349 404.859 399.287 414.448C399.287 414.448 389.001 389.645 390.095 343.364C390.095 343.364 408.261 342.085 412.857 344.131C417.453 346.176 439.777 352.057 442.622 348.989C445.468 345.921 458.381 354.614 458.381 354.614C459.038 352.928 459.378 351.097 459.378 349.245C459.378 347.392 459.038 345.561 458.381 343.875C456.192 337.738 452.471 318.561 457.286 312.424C462.101 306.287 476.546 276.37 476.546 276.37Z" fill="black"/>
<path opacity="0.1" d="M465.419 408.362C454.555 409.222 442.404 411.124 442.404 411.124C442.404 411.124 416.227 407.923 400.163 417.516C400.163 417.516 389.876 392.714 390.971 346.432C390.971 346.432 409.136 345.154 413.732 347.199C418.329 349.245 440.653 355.126 443.498 352.057C446.343 348.989 459.256 357.683 459.256 357.683C459.913 355.997 460.253 354.166 460.253 352.313C460.253 350.461 459.913 348.629 459.256 346.943C457.067 340.807 453.347 321.629 458.162 315.492C462.977 309.356 477.422 279.439 477.422 279.439L481.694 279.674C479.47 293.768 466.33 376.86 464.728 387.855C464.036 392.632 464.544 400.548 465.419 408.362Z" fill="black"/>
<path d="M477.422 277.393L482.018 277.649L495.588 320.095C495.588 320.095 503.685 342.341 505.218 345.921C506.75 349.5 506.093 364.331 505.218 368.678C504.342 373.025 498.652 392.202 498.433 397.06C498.214 401.919 487.927 406.777 477.422 406.01C466.916 405.243 442.404 409.078 442.404 409.078C442.404 409.078 416.225 405.881 400.163 415.471C400.163 415.471 389.876 390.668 390.971 344.386C390.971 344.386 409.136 343.108 413.732 345.154C418.329 347.199 440.653 353.08 443.498 350.012C446.343 346.943 459.256 355.637 459.256 355.637C459.913 353.951 460.253 352.12 460.253 350.267C460.253 348.415 459.913 346.584 459.256 344.898C457.067 338.761 453.347 319.584 458.162 313.447C462.977 307.31 477.422 277.393 477.422 277.393Z" fill="#F7F7F7"/>
<path d="M431.182 371.315L436.643 375.265L467.076 317.843L461.615 313.893L431.182 371.315Z" fill="#DFE6F5"/>
<path d="M482.681 310.067C488.059 299.918 487.48 288.119 481.388 283.712C475.295 279.304 465.996 283.958 460.618 294.107C455.239 304.255 455.818 316.054 461.911 320.462C468.003 324.869 477.302 320.215 482.681 310.067Z" fill="#DFE6F5"/>
<path opacity="0.1" d="M479.568 307.815C483.428 300.53 483.013 292.061 478.64 288.897C474.267 285.733 467.592 289.074 463.731 296.359C459.87 303.643 460.286 312.113 464.659 315.276C469.032 318.44 475.707 315.099 479.568 307.815Z" fill="black"/>
<path d="M415.627 400.664L421.088 404.614L440.024 368.885L434.563 364.934L415.627 400.664Z" fill="#53526B"/>
<path d="M383.529 403.197L396.88 398.85C396.88 398.85 462.758 400.896 440.653 369.189C440.653 369.189 429.053 356.149 404.759 366.632C380.465 377.116 373.68 378.394 373.68 378.394L383.529 403.197Z" fill="#A96C76"/>
<path opacity="0.1" d="M373.68 269.467C375.131 269.467 376.307 268.093 376.307 266.398C376.307 264.704 375.131 263.33 373.68 263.33C372.23 263.33 371.054 264.704 371.054 266.398C371.054 268.093 372.23 269.467 373.68 269.467Z" fill="black"/>
<path opacity="0.1" d="M418.766 267.677C420.217 267.677 421.393 266.303 421.393 264.608C421.393 262.914 420.217 261.54 418.766 261.54C417.316 261.54 416.14 262.914 416.14 264.608C416.14 266.303 417.316 267.677 418.766 267.677Z" fill="black"/>
<path d="M373.68 268.444C375.131 268.444 376.307 267.07 376.307 265.375C376.307 263.681 375.131 262.307 373.68 262.307C372.23 262.307 371.054 263.681 371.054 265.375C371.054 267.07 372.23 268.444 373.68 268.444Z" fill="white"/>
<path opacity="0.1" d="M377.401 311.913C378.851 311.913 380.027 310.539 380.027 308.844C380.027 307.15 378.851 305.776 377.401 305.776C375.95 305.776 374.775 307.15 374.775 308.844C374.775 310.539 375.95 311.913 377.401 311.913Z" fill="black"/>
<path opacity="0.1" d="M420.079 308.844C421.53 308.844 422.706 307.47 422.706 305.776C422.706 304.081 421.53 302.707 420.079 302.707C418.629 302.707 417.453 304.081 417.453 305.776C417.453 307.47 418.629 308.844 420.079 308.844Z" fill="black"/>
<path d="M377.401 310.89C378.851 310.89 380.027 309.516 380.027 307.821C380.027 306.127 378.851 304.753 377.401 304.753C375.95 304.753 374.775 306.127 374.775 307.821C374.775 309.516 375.95 310.89 377.401 310.89Z" fill="white"/>
<path opacity="0.1" d="M418.985 456.911C420.436 456.911 421.611 455.538 421.611 453.843C421.611 452.148 420.436 450.775 418.985 450.775C417.535 450.775 416.359 452.148 416.359 453.843C416.359 455.538 417.535 456.911 418.985 456.911Z" fill="black"/>
<path opacity="0.1" d="M384.42 456.911C385.87 456.911 387.046 455.538 387.046 453.843C387.046 452.148 385.87 450.775 384.42 450.775C382.969 450.775 381.793 452.148 381.793 453.843C381.793 455.538 382.969 456.911 384.42 456.911Z" fill="black"/>
<path d="M418.985 455.889C420.436 455.889 421.611 454.515 421.611 452.82C421.611 451.126 420.436 449.752 418.985 449.752C417.535 449.752 416.359 451.126 416.359 452.82C416.359 454.515 417.535 455.889 418.985 455.889Z" fill="white"/>
<path opacity="0.1" d="M387.046 508.29C388.497 508.29 389.673 506.916 389.673 505.221C389.673 503.527 388.497 502.153 387.046 502.153C385.596 502.153 384.42 503.527 384.42 505.221C384.42 506.916 385.596 508.29 387.046 508.29Z" fill="black"/>
<path opacity="0.1" d="M420.079 505.221C421.53 505.221 422.706 503.847 422.706 502.153C422.706 500.458 421.53 499.084 420.079 499.084C418.629 499.084 417.453 500.458 417.453 502.153C417.453 503.847 418.629 505.221 420.079 505.221Z" fill="black"/>
<path d="M387.046 507.267C388.497 507.267 389.673 505.893 389.673 504.198C389.673 502.504 388.497 501.13 387.046 501.13C385.596 501.13 384.42 502.504 384.42 504.198C384.42 505.893 385.596 507.267 387.046 507.267Z" fill="white"/>
<path d="M384.42 455.889C385.87 455.889 387.046 454.515 387.046 452.82C387.046 451.126 385.87 449.752 384.42 449.752C382.969 449.752 381.793 451.126 381.793 452.82C381.793 454.515 382.969 455.889 384.42 455.889Z" fill="white"/>
<path d="M420.079 504.198C421.53 504.198 422.706 502.825 422.706 501.13C422.706 499.435 421.53 498.062 420.079 498.062C418.629 498.062 417.453 499.435 417.453 501.13C417.453 502.825 418.629 504.198 420.079 504.198Z" fill="white"/>
<path d="M418.766 266.654C420.217 266.654 421.393 265.28 421.393 263.586C421.393 261.891 420.217 260.517 418.766 260.517C417.316 260.517 416.14 261.891 416.14 263.586C416.14 265.28 417.316 266.654 418.766 266.654Z" fill="white"/>
<path d="M420.079 307.821C421.53 307.821 422.706 306.448 422.706 304.753C422.706 303.058 421.53 301.685 420.079 301.685C418.629 301.685 417.453 303.058 417.453 304.753C417.453 306.448 418.629 307.821 420.079 307.821Z" fill="white"/>
<path opacity="0.1" d="M424.019 412.402C424.019 412.402 424.457 482.464 425.77 494.993C425.77 494.993 426.247 415.705 424.019 412.402Z" fill="black"/>
<path opacity="0.1" d="M435.181 444.876C434.279 444.876 453.128 526.956 454.003 532.837C454.879 538.718 440.434 444.876 435.181 444.876Z" fill="black"/>
<path opacity="0.1" d="M450.064 431.58C450.064 432.347 460.569 476.071 465.822 478.373C471.075 480.674 450.064 431.58 450.064 431.58Z" fill="black"/>
<path opacity="0.1" d="M491.429 346.432C491.429 346.432 469.105 347.595 468.448 351.36C467.792 355.126 491.429 346.432 491.429 346.432Z" fill="black"/>
<path opacity="0.1" d="M452.034 679.864C452.034 679.864 436.056 687.79 438.464 688.302C440.871 688.813 452.034 679.864 452.034 679.864Z" fill="black"/>
<path opacity="0.1" d="M418.985 668.102C418.363 666.466 429.709 674.75 429.709 675.772C429.709 676.795 419.861 670.403 418.985 668.102Z" fill="black"/>
<path opacity="0.1" d="M433.868 694.95C433.868 694.95 446.343 694.214 447.219 699.824C448.094 705.433 433.868 694.95 433.868 694.95Z" fill="black"/>
<path opacity="0.1" d="M344.134 694.918C344.134 694.918 357.703 691.818 358.798 694.918C359.892 698.018 344.134 694.918 344.134 694.918Z" fill="black"/>
<path opacity="0.1" d="M349.167 791.348C349.167 791.348 350.057 804.389 346.767 807.457C343.477 810.526 349.167 791.348 349.167 791.348Z" fill="black"/>
<path opacity="0.1" d="M347.51 818.964C351.794 819.475 374.337 814.873 374.118 818.964C373.899 823.055 347.51 818.964 347.51 818.964Z" fill="black"/>
<path opacity="0.1" d="M450.939 803.111C450.939 803.111 443.251 801.73 445.125 807.79L450.939 803.111Z" fill="black"/>
<path opacity="0.1" d="M308.021 292.735H303.863L297.516 319.839C297.516 319.839 295.327 329.3 293.138 331.601C290.95 333.903 295.108 354.87 295.108 354.87C295.108 354.87 292.701 369.701 290.731 373.536C288.761 377.372 293.795 386.832 293.795 386.832L303.863 414.448L330.564 422.63C330.564 422.63 377.62 434.648 379.808 436.438C381.997 438.228 383.967 435.671 385.499 419.051C387.031 402.43 391.189 370.212 394.472 368.678C394.472 368.678 368.209 372.002 366.02 371.491C363.831 370.979 353.326 371.746 353.326 371.746C353.326 371.746 339.537 370.724 337.349 372.258C335.16 373.792 340.194 364.831 340.194 364.831C341.116 360.728 341.116 356.416 340.194 352.313C338.662 345.409 337.787 267.165 308.021 292.735Z" fill="black"/>
<path opacity="0.1" d="M393.597 371.746C390.314 373.28 386.155 405.498 384.623 422.119C383.091 438.739 381.122 441.296 378.933 439.506C377.156 438.054 345.788 429.851 334.066 426.824C335.913 414.09 336.911 399.873 336.911 399.873L303.644 295.804H307.146C336.911 270.234 337.787 348.478 339.319 355.381C340.24 359.485 340.24 363.797 339.319 367.9C339.319 367.9 334.285 376.86 336.473 375.326C338.662 373.792 352.45 374.815 352.45 374.815C352.45 374.815 362.956 374.047 365.145 374.559C367.333 375.07 393.597 371.746 393.597 371.746Z" fill="black"/>
<path d="M307.146 293.758H302.987L296.64 320.862C296.64 320.862 294.452 330.323 292.263 332.624C290.074 334.926 294.233 355.893 294.233 355.893C294.233 355.893 291.825 370.723 289.855 374.559C287.886 378.394 292.919 387.855 292.919 387.855L302.987 415.471L329.689 423.653C329.689 423.653 376.744 435.671 378.933 437.461C381.122 439.251 383.091 436.694 384.623 420.073C386.156 403.453 390.314 371.235 393.597 369.701C393.597 369.701 367.333 373.025 365.145 372.513C362.956 372.002 352.45 372.769 352.45 372.769C352.45 372.769 338.662 371.746 336.473 373.281C334.285 374.815 339.319 365.854 339.319 365.854C340.24 361.751 340.24 357.439 339.319 353.336C337.787 346.432 336.911 268.188 307.146 293.758Z" fill="#F7F7F7"/>
<path opacity="0.1" d="M321.372 386.321C321.372 386.321 309.334 412.914 307.146 409.845C304.957 406.777 321.372 386.321 321.372 386.321Z" fill="black"/>
<path opacity="0.1" d="M308.897 371.178C308.897 371.178 297.734 381.974 302.987 384.787C308.24 387.6 308.897 371.178 308.897 371.178Z" fill="black"/>
<path opacity="0.1" d="M319.402 357.938C320.277 358.194 335.598 361.749 335.817 363.296C336.036 364.842 319.402 357.938 319.402 357.938Z" fill="black"/>
<path opacity="0.1" d="M425.647 170.623C425.171 170.819 424.765 171.195 424.494 171.692C424.223 172.189 424.102 172.778 424.15 173.365C423.257 174.285 422.005 173.201 421.279 172.025C420.543 170.859 419.712 169.417 418.6 169.58C418.072 169.777 417.559 170.027 417.068 170.327C415.317 170.981 413.837 168.578 412.857 166.471C411.15 162.779 409.443 159.09 407.736 155.404C404.312 157.726 400.268 155.292 396.871 152.888C393.474 150.485 389.43 148.04 385.998 150.362C380.964 153.758 380.78 165.08 375.563 167.872C373.882 168.772 371.929 168.578 370.371 169.816C368.83 171.043 367.999 173.405 367.307 175.666C367.051 176.953 366.45 178.11 365.591 178.969C365.045 179.303 364.438 179.475 363.823 179.471C362.276 179.778 360.685 179.517 359.27 178.724C358.529 178.18 357.968 177.356 357.682 176.389C357.395 175.422 357.4 174.369 357.694 173.405C357.736 173.303 357.783 173.204 357.835 173.109C358.395 172.317 358.899 171.472 359.34 170.583C359.866 168.956 359.113 167.064 359.279 165.305C359.55 162.298 362.273 160.713 362.737 157.757C362.93 156.601 362.728 155.363 362.912 154.197C362.938 154.045 362.973 153.894 363.017 153.747L361.415 155.036C363.21 152.592 364.112 149.196 365.425 146.23C366.884 142.982 368.891 140.114 371.326 137.799C373.76 135.483 376.572 133.769 379.59 132.76C385.298 130.816 391.329 131.348 397.09 132.995C402.568 134.589 407.815 137.115 412.664 140.492C414.397 141.577 415.936 143.039 417.199 144.798C418.258 146.622 419.158 148.565 419.887 150.597C421.585 154.709 426.225 158.514 422.531 159.086C419.458 159.567 422.259 162.083 423.87 163.781C424.234 164.114 424.547 164.515 424.798 164.967C425.066 165.614 425.188 166.33 425.155 167.047C425.121 167.764 424.932 168.46 424.605 169.069C423.984 169.989 426.505 170.173 425.647 170.623Z" fill="black"/>
<path d="M425.647 169.601C425.171 169.796 424.765 170.173 424.494 170.67C424.223 171.166 424.102 171.755 424.15 172.342C423.257 173.262 422.005 172.178 421.279 171.002C420.543 169.836 419.712 168.394 418.6 168.557C418.072 168.754 417.559 169.004 417.068 169.304C415.317 169.959 413.837 167.555 412.857 165.448C411.15 161.756 409.443 158.067 407.735 154.381C404.312 156.703 400.268 154.269 396.871 151.865C393.474 149.462 389.43 147.017 385.998 149.339C380.964 152.735 380.78 164.057 375.563 166.849C373.882 167.749 371.929 167.555 370.371 168.793C368.83 170.02 367.999 172.383 367.307 174.643C367.051 175.93 366.45 177.087 365.591 177.947C365.045 178.28 364.438 178.452 363.823 178.448C362.276 178.755 360.685 178.494 359.27 177.701C358.529 177.157 357.968 176.333 357.682 175.366C357.395 174.399 357.4 173.346 357.694 172.383C357.736 172.281 357.783 172.182 357.834 172.086C358.395 171.294 358.899 170.449 359.34 169.56C359.866 167.934 359.113 166.041 359.279 164.282C359.55 161.275 362.273 159.69 362.737 156.734C362.93 155.578 362.728 154.341 362.912 153.175C362.938 153.022 362.973 152.871 363.017 152.725L361.415 154.013C363.21 151.569 364.112 148.173 365.425 145.207C366.884 141.959 368.891 139.091 371.326 136.776C373.76 134.461 376.572 132.746 379.59 131.737C385.298 129.793 391.329 130.325 397.09 131.972C402.568 133.566 407.815 136.092 412.664 139.469C414.397 140.554 415.936 142.016 417.199 143.775C418.258 145.599 419.158 147.542 419.887 149.574C421.585 153.686 426.225 157.491 422.531 158.063C419.458 158.544 422.259 161.06 423.87 162.758C424.234 163.091 424.547 163.492 424.798 163.945C425.066 164.591 425.188 165.307 425.155 166.024C425.121 166.742 424.932 167.437 424.605 168.046C423.984 168.967 426.505 169.151 425.647 169.601Z" fill="black"/>
<path opacity="0.1" d="M423.87 162.758L423.52 167.064C423.52 167.064 386.786 112.672 358.211 174.091C358.211 174.091 358.071 173.344 357.835 172.086C358.395 171.294 358.899 170.449 359.34 169.56C359.866 167.934 359.113 166.041 359.279 164.282C359.55 161.275 362.273 159.69 362.737 156.734C362.93 155.578 362.728 154.341 362.912 153.175C362.938 153.022 362.973 152.871 363.017 152.725L361.415 154.013C363.21 151.569 364.112 148.173 365.425 145.207C366.884 141.959 368.891 139.091 371.326 136.776C373.76 134.461 376.572 132.746 379.59 131.737C385.298 129.793 391.329 130.325 397.09 131.972C402.568 133.566 407.815 136.092 412.664 139.469C414.397 140.554 415.936 142.016 417.199 143.775C418.258 145.599 419.158 147.542 419.887 149.574C421.585 153.686 426.225 157.491 422.531 158.063C419.458 158.544 422.259 161.06 423.87 162.758Z" fill="black"/>
<g opacity="0.1">
<path opacity="0.1" d="M424.776 169.044C424.595 169.282 424.463 169.565 424.391 169.872C424.319 170.179 424.308 170.501 424.36 170.814C423.467 171.734 422.215 170.65 421.488 169.474C420.753 168.308 419.921 166.866 418.809 167.03C418.281 167.226 417.769 167.476 417.277 167.776C415.526 168.431 414.047 166.027 413.066 163.92C411.359 160.228 409.652 156.539 407.945 152.854C404.522 155.175 400.477 152.741 397.08 150.338C393.684 147.934 389.639 145.49 386.207 147.811C381.173 151.207 380.989 162.529 375.772 165.322C374.091 166.222 372.139 166.027 370.58 167.265C369.039 168.492 368.208 170.855 367.516 173.115C367.26 174.402 366.659 175.559 365.8 176.419C365.255 176.752 364.648 176.924 364.032 176.92C362.485 177.227 360.894 176.966 359.48 176.173C358.632 175.516 358.023 174.514 357.773 173.362C357.6 174.278 357.67 175.234 357.975 176.103C358.28 176.971 358.805 177.709 359.48 178.219C360.894 179.012 362.485 179.273 364.032 178.966C364.648 178.97 365.255 178.798 365.8 178.464C366.659 177.605 367.26 176.448 367.516 175.161C368.208 172.9 369.039 170.538 370.58 169.31C372.139 168.073 374.091 168.267 375.772 167.367C380.989 164.575 381.173 153.253 386.207 149.857C389.639 147.535 393.684 149.98 397.08 152.383C400.477 154.787 404.522 157.221 407.945 154.899C409.652 158.581 411.359 162.27 413.066 165.966C414.047 168.073 415.526 170.476 417.277 169.822C417.769 169.522 418.281 169.272 418.809 169.075C419.921 168.912 420.753 170.354 421.488 171.52C422.215 172.696 423.467 173.78 424.36 172.86C424.311 172.273 424.432 171.684 424.703 171.187C424.975 170.69 425.381 170.314 425.857 170.118C426.539 169.761 425.087 169.57 424.776 169.044Z" fill="black"/>
<path opacity="0.1" d="M421.913 158.825C422.178 158.701 422.456 158.619 422.74 158.581C424.369 158.329 424.376 157.447 423.731 156.189C423.424 156.382 423.087 156.5 422.74 156.536C420.982 156.811 421.149 157.752 421.913 158.825Z" fill="black"/>
<path opacity="0.1" d="M425.267 167.392C425.389 166.733 425.386 166.05 425.258 165.392C425.18 165.8 425.029 166.184 424.815 166.518C424.54 166.924 424.878 167.187 425.267 167.392Z" fill="black"/>
<path opacity="0.1" d="M359.539 164.446C359.52 164.563 359.499 164.679 359.488 164.8C359.453 165.721 359.51 166.644 359.659 167.549C359.762 166.514 359.722 165.466 359.539 164.446V164.446Z" fill="black"/>
<path opacity="0.1" d="M363.093 151.967C362.681 152.879 362.189 153.738 361.624 154.531L363.037 153.394C363.031 152.918 363.049 152.441 363.093 151.967V151.967Z" fill="black"/>
</g>
<path d="M358.209 173.068C358.209 173.068 352.927 145.479 354.607 141.055C354.607 141.055 350.045 130.123 350.045 127.521C349.824 123.178 348.668 118.97 346.684 115.288C344.283 110.863 341.641 90.302 356.048 85.3568C370.455 80.4117 381.5 75.987 383.181 72.6035C384.862 69.2201 409.593 71.3022 416.316 84.3157C423.039 97.3293 427.361 94.7266 427.361 94.7266C427.361 94.7266 437.686 102.274 437.686 109.041C437.686 115.808 434.565 119.192 437.686 120.754C440.808 122.315 438.406 150.424 424.72 151.205L423.52 166.041C423.52 166.041 386.782 111.644 358.209 173.068Z" fill="#F7F7F7"/>
<path opacity="0.1" d="M359.782 90.7329C359.782 90.7329 356.609 112.467 362.409 119.755L359.782 90.7329Z" fill="black"/>
<path opacity="0.1" d="M374.665 85.7468C374.665 85.7468 366.567 109.015 368.537 113.49L374.665 85.7468Z" fill="black"/>
<path opacity="0.1" d="M381.669 78.3315C381.669 78.3315 376.197 108.632 378.824 111.061L381.669 78.3315Z" fill="black"/>
<path opacity="0.1" d="M391.08 86.5139C391.08 86.5139 384.295 105.947 387.031 108.632L391.08 86.5139Z" fill="black"/>
<path opacity="0.1" d="M403.884 88.8152C403.884 88.8152 395.895 104.669 397.536 107.481L403.884 88.8152Z" fill="black"/>
<path opacity="0.1" d="M420.298 104.285C420.298 104.285 411.763 106.97 413.514 110.166L420.298 104.285Z" fill="black"/>
<path opacity="0.1" d="M428.396 120.778C428.396 120.778 420.736 125.124 422.159 127.426L428.396 120.778Z" fill="black"/>
<path opacity="0.1" d="M354.608 141.055C354.608 141.055 403.535 117.836 424.72 151.205C424.72 151.205 399.005 125.662 354.608 141.055Z" fill="black"/>
<path d="M336.927 331.835L343.744 323.778L363.019 346.038L356.202 354.096L338.475 333.624L336.927 331.835Z" fill="#53526B"/>
<path d="M292.201 280.182C292.201 280.182 322.04 283.149 349.812 319.668L338.237 333.349L292.201 280.182Z" fill="#DFE6F5"/>
<path d="M381.701 345.481C381.701 345.481 353.022 333.266 350.203 330.345C347.385 327.425 330.807 344.419 351.032 367.52C351.032 367.52 375.763 375.751 382.379 367.52C388.995 359.288 381.701 345.481 381.701 345.481Z" fill="#A96C76"/>
<defs>
<linearGradient id="paint0_linear_111_2" x1="397.767" y1="904.254" x2="397.767" y2="67.5176" gradientUnits="userSpaceOnUse">
<stop stop-color="#808080" stop-opacity="0.25"/>
<stop offset="0.53514" stop-color="#808080" stop-opacity="0.12"/>
<stop offset="1" stop-color="#808080" stop-opacity="0.1"/>
</linearGradient>
</defs>
</svg>
