<svg width="786" height="536" viewBox="0 0 786 536" fill="none" xmlns="http://www.w3.org/2000/svg">
<g clip-path="url(#clip0_302_3)">
<path d="M214.604 438.385C235.942 438.385 253.24 414.715 253.24 385.516C253.24 356.317 235.942 332.647 214.604 332.647C193.266 332.647 175.968 356.317 175.968 385.516C175.968 414.715 193.266 438.385 214.604 438.385Z" fill="#00853F" fill-opacity="0.6"/>
<path opacity="0.2" d="M186.076 350.204C182.472 361.739 181.983 374.653 184.697 386.636C187.41 398.62 193.149 408.892 200.888 415.619C208.627 422.345 217.862 425.087 226.942 423.354C236.023 421.621 244.357 415.526 250.455 406.159C248.254 413.207 244.959 419.515 240.799 424.647C236.639 429.78 231.713 433.613 226.362 435.882C221.012 438.15 215.365 438.8 209.813 437.786C204.261 436.772 198.937 434.118 194.209 430.009C189.481 425.899 185.462 420.433 182.431 413.987C179.4 407.541 177.43 400.271 176.656 392.68C175.883 385.089 176.325 377.358 177.951 370.024C179.578 362.689 182.35 355.926 186.076 350.204V350.204Z" fill="#00853F"/>
<path d="M214.71 385.517H214.816L216.727 535.408H212.693L214.71 385.517Z" fill="#3F3D56"/>
<path d="M136.432 339.792C179.453 339.792 214.329 292.068 214.329 233.198C214.329 174.328 179.453 126.605 136.432 126.605C93.41 126.605 58.5342 174.328 58.5342 233.198C58.5342 292.068 93.41 339.792 136.432 339.792Z" fill="#00853F" fill-opacity="0.6"/>
<path opacity="0.2" d="M78.9148 162.002C71.6488 185.26 70.6631 211.296 76.1339 235.457C81.6048 259.617 93.1756 280.329 108.779 293.891C124.382 307.452 143.001 312.98 161.308 309.486C179.616 305.992 196.419 293.704 208.715 274.818C204.276 289.027 197.633 301.747 189.245 312.094C180.858 322.442 170.926 330.17 160.139 334.744C149.352 339.319 137.967 340.629 126.774 338.584C115.58 336.54 104.844 331.189 95.3117 322.904C85.779 314.619 77.6766 303.596 71.566 290.601C65.4553 277.605 61.4826 262.947 59.9228 247.642C58.3631 232.336 59.2538 216.75 62.5332 201.963C65.8126 187.175 71.4022 173.54 78.9148 162.002V162.002Z" fill="#00853F"/>
<path d="M136.646 233.198H136.86L140.712 535.408H132.58L136.646 233.198Z" fill="#3F3D56"/>
<path d="M650.011 378.986H292.964V523.822H650.011V378.986Z" fill="#F0F0F0"/>
<path d="M492.303 408.919H450.671V523.822H492.303V408.919Z" fill="#CACACA"/>
<path d="M629.195 208.08H313.78V341.329H629.195V208.08Z" fill="#F0F0F0"/>
<path d="M661.173 216.288H281.802C281.169 216.288 280.55 216.028 280.025 215.543C279.5 215.058 279.093 214.37 278.857 213.566C278.62 212.762 278.564 211.879 278.697 211.032C278.83 210.184 279.145 209.411 279.602 208.81L383.284 72.4365V13.0352C383.285 11.8832 383.62 10.7788 384.215 9.96418C384.81 9.14961 385.617 8.69141 386.459 8.69011H406.922C407.764 8.69137 408.571 9.14956 409.167 9.96415C409.762 10.7787 410.097 11.8832 410.098 13.0352V37.1688L417.929 26.8681C430.744 10.012 447.747 0.417713 465.52 0.0132929C483.293 -0.391127 500.519 8.42431 513.737 24.688L663.296 208.711C663.773 209.299 664.11 210.071 664.26 210.926C664.41 211.78 664.367 212.677 664.137 213.498C663.907 214.319 663.501 215.025 662.972 215.523C662.442 216.021 661.815 216.287 661.173 216.288V216.288Z" fill="#00853F"/>
<path d="M397.044 241.875C399.684 241.875 402.3 242.587 404.739 243.97C407.179 245.353 409.396 247.38 411.264 249.935C413.131 252.491 414.612 255.524 415.623 258.863C416.634 262.202 417.154 265.78 417.154 269.394V306.568H376.933V269.394C376.933 265.78 377.453 262.202 378.464 258.863C379.475 255.524 380.956 252.491 382.823 249.935C384.691 247.38 386.908 245.353 389.348 243.97C391.787 242.587 394.403 241.875 397.044 241.875V241.875Z" fill="white"/>
<path d="M471.487 242.358C476.821 242.358 481.936 245.257 485.708 250.418C489.479 255.579 491.598 262.578 491.598 269.877V307.051H451.377V269.877C451.377 262.578 453.496 255.579 457.267 250.418C461.039 245.257 466.154 242.358 471.487 242.358V242.358Z" fill="white"/>
<path d="M545.931 242.841C551.265 242.841 556.38 245.74 560.151 250.901C563.923 256.062 566.042 263.061 566.042 270.359V307.534H525.821V270.359C525.821 263.061 527.94 256.062 531.711 250.901C535.482 245.74 540.598 242.841 545.931 242.841V242.841Z" fill="white"/>
<path d="M575.567 407.47C580.901 407.47 586.016 410.37 589.788 415.53C593.559 420.691 595.678 427.691 595.678 434.989V472.164H555.457V434.989C555.457 427.691 557.576 420.691 561.347 415.53C565.119 410.37 570.234 407.47 575.567 407.47Z" fill="white"/>
<path d="M376.58 407.47C381.914 407.47 387.029 410.37 390.801 415.53C394.572 420.691 396.691 427.691 396.691 434.989V472.164H356.47V434.989C356.47 431.375 356.99 427.797 358.001 424.458C359.011 421.119 360.493 418.086 362.36 415.53C364.228 412.975 366.445 410.948 368.884 409.565C371.324 408.182 373.939 407.47 376.58 407.47V407.47Z" fill="white"/>
<path d="M702.175 381.247L635.196 340.694C634.837 340.476 634.448 340.363 634.054 340.363H314.848C314.483 340.363 314.122 340.46 313.785 340.648L240.879 381.202C240.273 381.539 239.771 382.154 239.46 382.942C239.148 383.73 239.046 384.641 239.172 385.52C239.298 386.4 239.643 387.192 240.148 387.761C240.653 388.33 241.288 388.642 241.942 388.642H260.858V521.891H258.741V535.408H684.234V521.89H680.706V388.642H701.033C701.68 388.642 702.307 388.337 702.81 387.78C703.313 387.222 703.66 386.445 703.794 385.578C703.928 384.712 703.84 383.808 703.545 383.02C703.25 382.232 702.766 381.606 702.175 381.247ZM675.061 521.89H266.503V388.642H675.061V521.89Z" fill="#00853F"/>
<path d="M422.093 301.258H370.583V312.845H422.093V301.258Z" fill="#00853F"/>
<path d="M497.596 301.258H446.085V312.845H497.596V301.258Z" fill="#CACACA"/>
<path d="M573.098 301.258H521.587V312.845H573.098V301.258Z" fill="#00853F"/>
<path d="M601.323 468.301H549.812V479.888H601.323V468.301Z" fill="#00853F"/>
<path d="M401.63 468.301H350.119V479.888H401.63V468.301Z" fill="#00853F"/>
<path d="M500.618 320.117H447.061V261.493C448.049 234.701 464.784 232.537 480.508 233.975C483.149 233.975 485.764 234.687 488.204 236.069C490.643 237.452 492.86 239.479 494.728 242.034C496.595 244.59 498.077 247.623 499.087 250.962C500.098 254.3 500.618 257.879 500.618 261.493V320.117Z" fill="#CACACA"/>
</g>
<defs>
<clipPath id="clip0_302_3">
<rect width="786" height="536" fill="white"/>
</clipPath>
</defs>
</svg>
